<svg width="20" height="20" viewBox="0 0 20 20" fill="none" xmlns="http://www.w3.org/2000/svg">
<path d="M14.8818 19.1162H4.78809C2.33263 19.1162 0.334961 17.1185 0.334961 14.6631V4.56934C0.334961 2.11388 2.33263 0.116211 4.78809 0.116211H14.8818C17.3373 0.116211 19.335 2.11388 19.335 4.56934V14.6631C19.335 17.1185 17.3373 19.1162 14.8818 19.1162ZM4.78809 1.60059C3.15112 1.60059 1.81934 2.93237 1.81934 4.56934V14.6631C1.81934 16.3001 3.15112 17.6318 4.78809 17.6318H14.8818C16.5188 17.6318 17.8506 16.3001 17.8506 14.6631V4.56934C17.8506 2.93237 16.5188 1.60059 14.8818 1.60059H4.78809ZM8.16504 3.86426C8.16504 3.45435 7.83276 3.12207 7.42285 3.12207H4.30566C3.89575 3.12207 3.56348 3.45435 3.56348 3.86426C3.56348 4.27417 3.89575 4.60645 4.30566 4.60645H7.42285C7.83276 4.60645 8.16504 4.27417 8.16504 3.86426ZM14.9561 12.5107C14.9561 12.1008 14.6238 11.7686 14.2139 11.7686H8.0166C7.60669 11.7686 7.27441 12.1008 7.27441 12.5107C7.27441 12.9207 7.60669 13.2529 8.0166 13.2529H14.2139C14.6238 13.2529 14.9561 12.9207 14.9561 12.5107ZM15.958 15.4053C15.958 14.9954 15.6257 14.6631 15.2158 14.6631H13.583C13.1731 14.6631 12.8408 14.9954 12.8408 15.4053C12.8408 15.8152 13.1731 16.1475 13.583 16.1475H15.2158C15.6257 16.1475 15.958 15.8152 15.958 15.4053Z" fill="black"/>
<path d="M15.3271 10.3584H10.0947C9.68482 10.3584 9.35254 10.0261 9.35254 9.61621C9.35254 9.2063 9.68482 8.87402 10.0947 8.87402H15.3271C15.7371 8.87402 16.0693 9.2063 16.0693 9.61621C16.0693 10.0261 15.7371 10.3584 15.3271 10.3584ZM13.4717 6.75879C13.4717 6.34888 13.1394 6.0166 12.7295 6.0166H5.79004C5.38013 6.0166 5.04785 6.34888 5.04785 6.75879C5.04785 7.1687 5.38013 7.50098 5.79004 7.50098H12.7295C13.1394 7.50098 13.4717 7.1687 13.4717 6.75879Z" fill="#1A6291"/>
</svg>
