<svg width="20" height="19" viewBox="0 0 20 19" fill="none" xmlns="http://www.w3.org/2000/svg">
<path d="M14.8818 19H4.78809C2.33263 19 0.334961 17.0023 0.334961 14.5469V4.45312C0.334961 1.99767 2.33263 0 4.78809 0H14.8818C17.3373 0 19.335 1.99767 19.335 4.45312V14.5469C19.335 17.0023 17.3373 19 14.8818 19ZM4.78809 1.48438C3.15112 1.48438 1.81934 2.81616 1.81934 4.45312V14.5469C1.81934 16.1838 3.15112 17.5156 4.78809 17.5156H14.8818C16.5188 17.5156 17.8506 16.1838 17.8506 14.5469V4.45312C17.8506 2.81616 16.5188 1.48438 14.8818 1.48438H4.78809ZM8.16504 3.74805C8.16504 3.33814 7.83276 3.00586 7.42285 3.00586H4.30566C3.89575 3.00586 3.56348 3.33814 3.56348 3.74805C3.56348 4.15796 3.89575 4.49023 4.30566 4.49023H7.42285C7.83276 4.49023 8.16504 4.15796 8.16504 3.74805ZM14.9561 12.3945C14.9561 11.9846 14.6238 11.6523 14.2139 11.6523H8.0166C7.60669 11.6523 7.27441 11.9846 7.27441 12.3945C7.27441 12.8044 7.60669 13.1367 8.0166 13.1367H14.2139C14.6238 13.1367 14.9561 12.8044 14.9561 12.3945ZM15.958 15.2891C15.958 14.8792 15.6257 14.5469 15.2158 14.5469H13.583C13.1731 14.5469 12.8408 14.8792 12.8408 15.2891C12.8408 15.699 13.1731 16.0312 13.583 16.0312H15.2158C15.6257 16.0312 15.958 15.699 15.958 15.2891Z" fill="black"/>
</svg>
